<svg width="81" height="36" viewBox="0 0 81 36" fill="none" xmlns="http://www.w3.org/2000/svg">
<rect x="0.333344" width="80.6667" height="36" rx="5" fill="#CD201F"/>
<path d="M50.2488 13.1691C50.0187 12.303 49.341 11.6209 48.4805 11.3894C46.9209 10.9688 40.6667 10.9688 40.6667 10.9688C40.6667 10.9688 34.4125 10.9688 32.8528 11.3894C31.9923 11.6209 31.3146 12.303 31.0846 13.1691C30.6667 14.7389 30.6667 18.0142 30.6667 18.0142C30.6667 18.0142 30.6667 21.2895 31.0846 22.8594C31.3146 23.7254 31.9923 24.3791 32.8528 24.6106C34.4125 25.0312 40.6667 25.0312 40.6667 25.0312C40.6667 25.0312 46.9208 25.0312 48.4805 24.6106C49.341 24.3791 50.0187 23.7254 50.2488 22.8594C50.6667 21.2895 50.6667 18.0142 50.6667 18.0142C50.6667 18.0142 50.6667 14.7389 50.2488 13.1691ZM38.6212 20.988V15.0405L43.8485 18.0143L38.6212 20.988Z" fill="white"/>
</svg>
