<svg width="81" height="40" viewBox="0 0 81 40" fill="none" xmlns="http://www.w3.org/2000/svg">
<rect width="80.6667" height="40" rx="5" fill="#4C75A3"/>
<path d="M49.8775 14.8652C50.0149 14.4011 49.8775 14.0595 49.2166 14.0595H47.0298C46.4729 14.0595 46.2167 14.3528 46.0793 14.6795C46.0793 14.6795 44.9655 17.3936 43.3913 19.1535C42.8826 19.6621 42.6487 19.8255 42.3702 19.8255C42.2329 19.8255 42.0212 19.6621 42.0212 19.198V14.8652C42.0212 14.3083 41.8653 14.0595 41.4049 14.0595H37.9668C37.6178 14.0595 37.4099 14.3194 37.4099 14.5607C37.4099 15.088 38.197 15.2105 38.2787 16.6956V19.9183C38.2787 20.6237 38.1525 20.7537 37.874 20.7537C37.1315 20.7537 35.327 18.0285 34.2578 14.9097C34.0424 14.3046 33.8308 14.0595 33.2702 14.0595H31.0833C30.4596 14.0595 30.3333 14.3528 30.3333 14.6795C30.3333 15.2587 31.0759 18.1362 33.7899 21.9381C35.5981 24.5333 38.1451 25.9405 40.4619 25.9405C41.8542 25.9405 42.0249 25.6286 42.0249 25.0902C42.0249 22.6101 41.8987 22.3762 42.5967 22.3762C42.9197 22.3762 43.4766 22.5395 44.7761 23.7908C46.2612 25.2759 46.5063 25.9405 47.338 25.9405H49.5248C50.1486 25.9405 50.4641 25.6286 50.2822 25.0123C49.8664 23.7165 47.0558 21.0507 46.9296 20.8725C46.6065 20.4567 46.6994 20.271 46.9296 19.8997C46.9333 19.896 49.6028 16.1387 49.8775 14.8652Z" fill="white"/>
</svg>
